<svg id="visual" viewBox="0 0 960 540" width="960" height="540" xmlns="http://www.w3.org/2000/svg" xmlns:xlink="http://www.w3.org/1999/xlink" version="1.1"><rect x="0" y="0" width="960" height="540" fill="#076ea2"></rect><path d="M0 418L20 420C40 422 80 426 120 423.5C160 421 200 412 240 417.8C280 423.7 320 444.3 360 455.8C400 467.3 440 469.7 480 458.5C520 447.3 560 422.7 600 423.7C640 424.7 680 451.3 720 452.3C760 453.3 800 428.7 840 413.8C880 399 920 394 940 391.5L960 389L960 541L940 541C920 541 880 541 840 541C800 541 760 541 720 541C680 541 640 541 600 541C560 541 520 541 480 541C440 541 400 541 360 541C320 541 280 541 240 541C200 541 160 541 120 541C80 541 40 541 20 541L0 541Z" fill="#ffffff" stroke-linecap="round" stroke-linejoin="miter"></path></svg>