<svg id="visual" viewBox="0 0 960 540" width="960" height="540" xmlns="http://www.w3.org/2000/svg" xmlns:xlink="http://www.w3.org/1999/xlink" version="1.1"><rect x="0" y="0" width="960" height="540" fill="#0897de"></rect><path d="M0 437L16 440C32 443 64 449 96 457.3C128 465.7 160 476.3 192 480.7C224 485 256 483 288 475C320 467 352 453 384 449.5C416 446 448 453 480 454C512 455 544 450 576 446.5C608 443 640 441 672 448.8C704 456.7 736 474.3 768 483.8C800 493.3 832 494.7 864 490.8C896 487 928 478 944 473.5L960 469L960 541L944 541C928 541 896 541 864 541C832 541 800 541 768 541C736 541 704 541 672 541C640 541 608 541 576 541C544 541 512 541 480 541C448 541 416 541 384 541C352 541 320 541 288 541C256 541 224 541 192 541C160 541 128 541 96 541C64 541 32 541 16 541L0 541Z" fill="#FFFFFF" stroke-linecap="round" stroke-linejoin="miter"></path></svg>